<?xml version="1.0" encoding="utf-8"?>
<!-- Generator: Adobe Illustrator 27.4.1, SVG Export Plug-In . SVG Version: 6.00 Build 0)  -->
<svg version="1.1" id="圖層_1" xmlns="http://www.w3.org/2000/svg" xmlns:xlink="http://www.w3.org/1999/xlink" x="0px" y="0px"
	 viewBox="0 0 29 38" style="enable-background:new 0 0 29 38;" xml:space="preserve">
<style type="text/css">
	.st0{fill:#FFFFFF;}
</style>
<g id="電腦版1366x768">
	<g id="電腦版_播放完畢" transform="translate(-670.000000, -341.000000)">
		
			<g id="btn_play" transform="translate(682.500000, 360.500000) scale(-1, 1) translate(-682.500000, -360.500000) translate(640.000000, 318.000000)">
			<g id="Stroke-1">
				<path class="st0" d="M50.4,60.8c0.7,0,1.3-0.2,1.6-0.4c0.8-0.4,2.1-1.5,2.1-4.3v-28c0-2-0.8-3.6-2.1-4.3
					c-0.8-0.4-2.5-0.9-4.7,0.7L28.6,37.8c-1.6,1.1-2.5,2.7-2.5,4.4s0.9,3.3,2.5,4.4l18.7,13.2C48.5,60.5,49.6,60.8,50.4,60.8z
					 M50.4,26.5c0.1,0,0.2,0,0.2,0.1c0.3,0.1,0.5,0.7,0.5,1.6v28c0,0.9-0.3,1.5-0.5,1.6c-0.3,0.1-0.8,0-1.6-0.5L30.4,44.1
					c-0.8-0.5-1.2-1.2-1.2-1.9s0.4-1.4,1.2-1.9L49,27.1C49.6,26.7,50.1,26.5,50.4,26.5z"/>
			</g>
		</g>
	</g>
</g>
</svg>
